<svg id="Layer_1" data-name="Layer 1" xmlns="http://www.w3.org/2000/svg" viewBox="0 0 379.21 294.33"><defs><style>.cls-1{fill:#1a1a1a;}.cls-2{fill:#4d4d4d;}.cls-3{stroke:#000;}.cls-3,.cls-5{stroke-linejoin:round;}.cls-3,.cls-6{stroke-width:0.8px;}.cls-4{fill-rule:evenodd;}.cls-5,.cls-7{fill:none;}.cls-5{stroke:#999;stroke-width:1.5px;}.cls-6{fill:#f2f2f2;stroke:gray;stroke-linecap:square;stroke-miterlimit:10;}</style></defs><title>premRes</title><rect class="cls-1" x="102.89" y="29.57" width="100" height="236.94"/><rect class="cls-2" x="242.16" y="46.5" width="100" height="220.01"/><path class="cls-3" d="M830.89,675.58" transform="translate(-724.18 -409.07)"/><line class="cls-3" x1="151.79" y1="266.51" x2="151.79" y2="270.01"/><line class="cls-3" x1="292.16" y1="266.51" x2="292.16" y2="270.01"/><line class="cls-3" x1="63.42" y1="266.51" x2="59.92" y2="266.51"/><line class="cls-3" x1="63.42" y1="209.11" x2="59.92" y2="209.11"/><line class="cls-3" x1="63.42" y1="151.71" x2="59.92" y2="151.71"/><line class="cls-3" x1="63.42" y1="94.3" x2="59.92" y2="94.3"/><line class="cls-3" x1="63.42" y1="36.9" x2="59.92" y2="36.9"/><path class="cls-4" d="M756.5,670.64a1.23,1.23,0,0,0-1.15.75,6.85,6.85,0,0,0,0,4.5,1.26,1.26,0,0,0,2.3,0,6.85,6.85,0,0,0,0-4.5,1.23,1.23,0,0,0-1.15-.75m0-.78a2.14,2.14,0,0,1,1.87,1,6.4,6.4,0,0,1,0,5.62,2.31,2.31,0,0,1-3.75,0,6.49,6.49,0,0,1,0-5.62,2.14,2.14,0,0,1,1.88-1Z" transform="translate(-724.18 -409.07)"/><polygon class="cls-4" points="36.69 266.97 37.72 266.97 37.72 268.21 36.69 268.21 36.69 266.97 36.69 266.97"/><path class="cls-4" d="M766.1,670.64a1.23,1.23,0,0,0-1.15.75,6.85,6.85,0,0,0,0,4.5,1.26,1.26,0,0,0,2.3,0,6.85,6.85,0,0,0,0-4.5,1.23,1.23,0,0,0-1.15-.75m0-.78a2.14,2.14,0,0,1,1.87,1,6.4,6.4,0,0,1,0,5.62,2.31,2.31,0,0,1-3.75,0,6.49,6.49,0,0,1,0-5.62,2.14,2.14,0,0,1,1.88-1Z" transform="translate(-724.18 -409.07)"/><path class="cls-4" d="M772.34,670.64a1.23,1.23,0,0,0-1.15.75,6.85,6.85,0,0,0,0,4.5,1.26,1.26,0,0,0,2.3,0,6.85,6.85,0,0,0,0-4.5,1.23,1.23,0,0,0-1.15-.75m0-.78a2.14,2.14,0,0,1,1.87,1,6.4,6.4,0,0,1,0,5.62,2.31,2.31,0,0,1-3.75,0,6.49,6.49,0,0,1,0-5.62,2.14,2.14,0,0,1,1.88-1Z" transform="translate(-724.18 -409.07)"/><path class="cls-4" d="M756.5,613.28a1.23,1.23,0,0,0-1.15.75,6.85,6.85,0,0,0,0,4.5,1.26,1.26,0,0,0,2.3,0,6.85,6.85,0,0,0,0-4.5,1.23,1.23,0,0,0-1.15-.75m0-.78a2.14,2.14,0,0,1,1.87,1,6.4,6.4,0,0,1,0,5.62,2.31,2.31,0,0,1-3.75,0,6.49,6.49,0,0,1,0-5.62,2.14,2.14,0,0,1,1.88-1Z" transform="translate(-724.18 -409.07)"/><polygon class="cls-4" points="36.69 209.61 37.72 209.61 37.72 210.85 36.69 210.85 36.69 209.61 36.69 209.61"/><path class="cls-4" d="M766.1,613.28A1.23,1.23,0,0,0,765,614a6.85,6.85,0,0,0,0,4.5,1.26,1.26,0,0,0,2.3,0,6.85,6.85,0,0,0,0-4.5,1.23,1.23,0,0,0-1.15-.75m0-.78a2.14,2.14,0,0,1,1.87,1,6.4,6.4,0,0,1,0,5.62,2.31,2.31,0,0,1-3.75,0,6.49,6.49,0,0,1,0-5.62,2.14,2.14,0,0,1,1.88-1Z" transform="translate(-724.18 -409.07)"/><path class="cls-4" d="M770.24,612.63h3.87v.83h-3v1.79a2.26,2.26,0,0,1,.43-.11,3.13,3.13,0,0,1,.43,0,2.74,2.74,0,0,1,1.93.67,2.36,2.36,0,0,1,.72,1.81,2.31,2.31,0,0,1-.74,1.83,3,3,0,0,1-2.06.64,7.57,7.57,0,0,1-.94-.07,6.28,6.28,0,0,1-1-.23v-1a3.75,3.75,0,0,0,.91.36,4,4,0,0,0,1,.11,1.92,1.92,0,0,0,1.34-.44,1.73,1.73,0,0,0,0-2.41,1.92,1.92,0,0,0-1.34-.45,3.55,3.55,0,0,0-.79.09,4.44,4.44,0,0,0-.8.27v-3.66Z" transform="translate(-724.18 -409.07)"/><path class="cls-4" d="M756.5,555.92a1.23,1.23,0,0,0-1.15.75,6.85,6.85,0,0,0,0,4.5,1.26,1.26,0,0,0,2.3,0,6.85,6.85,0,0,0,0-4.5,1.23,1.23,0,0,0-1.15-.75m0-.78a2.14,2.14,0,0,1,1.87,1,6.4,6.4,0,0,1,0,5.62,2.31,2.31,0,0,1-3.75,0,6.49,6.49,0,0,1,0-5.62,2.14,2.14,0,0,1,1.88-1Z" transform="translate(-724.18 -409.07)"/><polygon class="cls-4" points="36.69 152.25 37.72 152.25 37.72 153.49 36.69 153.49 36.69 152.25 36.69 152.25"/><polygon class="cls-4" points="39.98 152.66 41.59 152.66 41.59 147.1 39.84 147.45 39.84 146.55 41.58 146.2 42.56 146.2 42.56 152.66 44.17 152.66 44.17 153.49 39.98 153.49 39.98 152.66 39.98 152.66"/><path class="cls-4" d="M772.34,555.92a1.23,1.23,0,0,0-1.15.75,6.85,6.85,0,0,0,0,4.5,1.26,1.26,0,0,0,2.3,0,6.85,6.85,0,0,0,0-4.5,1.23,1.23,0,0,0-1.15-.75m0-.78a2.14,2.14,0,0,1,1.87,1,6.4,6.4,0,0,1,0,5.62,2.31,2.31,0,0,1-3.75,0,6.49,6.49,0,0,1,0-5.62,2.14,2.14,0,0,1,1.88-1Z" transform="translate(-724.18 -409.07)"/><path class="cls-4" d="M756.5,498.56a1.23,1.23,0,0,0-1.15.75,6.85,6.85,0,0,0,0,4.5,1.26,1.26,0,0,0,2.3,0,6.85,6.85,0,0,0,0-4.5,1.23,1.23,0,0,0-1.15-.75m0-.78a2.14,2.14,0,0,1,1.87,1,6.4,6.4,0,0,1,0,5.62,2.31,2.31,0,0,1-3.75,0,6.49,6.49,0,0,1,0-5.62,2.14,2.14,0,0,1,1.88-1Z" transform="translate(-724.18 -409.07)"/><polygon class="cls-4" points="36.69 94.89 37.72 94.89 37.72 96.13 36.69 96.13 36.69 94.89 36.69 94.89"/><polygon class="cls-4" points="39.98 95.3 41.59 95.3 41.59 89.74 39.84 90.09 39.84 89.19 41.58 88.84 42.56 88.84 42.56 95.3 44.17 95.3 44.17 96.13 39.98 96.13 39.98 95.3 39.98 95.3"/><path class="cls-4" d="M770.24,497.91h3.87v.83h-3v1.79a2.26,2.26,0,0,1,.43-.11,3.13,3.13,0,0,1,.43,0,2.74,2.74,0,0,1,1.93.67,2.36,2.36,0,0,1,.72,1.81,2.31,2.31,0,0,1-.74,1.83,3,3,0,0,1-2.06.64,7.57,7.57,0,0,1-.94-.07,6.28,6.28,0,0,1-1-.23v-1a3.75,3.75,0,0,0,.91.36,4,4,0,0,0,1,.11,1.92,1.92,0,0,0,1.34-.44,1.73,1.73,0,0,0,0-2.41,1.92,1.92,0,0,0-1.34-.45,3.55,3.55,0,0,0-.79.09,4.44,4.44,0,0,0-.8.27v-3.66Z" transform="translate(-724.18 -409.07)"/><path class="cls-4" d="M756.5,441.2a1.23,1.23,0,0,0-1.15.75,6.85,6.85,0,0,0,0,4.5,1.26,1.26,0,0,0,2.3,0,6.85,6.85,0,0,0,0-4.5,1.23,1.23,0,0,0-1.15-.75m0-.78a2.14,2.14,0,0,1,1.87,1,6.4,6.4,0,0,1,0,5.62,2.31,2.31,0,0,1-3.75,0,6.49,6.49,0,0,1,0-5.62,2.14,2.14,0,0,1,1.88-1Z" transform="translate(-724.18 -409.07)"/><polygon class="cls-4" points="36.69 37.53 37.72 37.53 37.72 38.77 36.69 38.77 36.69 37.53 36.69 37.53"/><path class="cls-4" d="M764.84,447h3.44v.83h-4.63V447l1.53-1.56c.64-.65,1.05-1.07,1.22-1.26a4,4,0,0,0,.66-.9,1.65,1.65,0,0,0,.19-.73,1.21,1.21,0,0,0-.41-.94,1.54,1.54,0,0,0-1.06-.37,3.52,3.52,0,0,0-1,.16,6,6,0,0,0-1.1.49v-1a7.87,7.87,0,0,1,1.11-.36,4.19,4.19,0,0,1,1-.12,2.7,2.7,0,0,1,1.8.57,1.88,1.88,0,0,1,.68,1.51,2.19,2.19,0,0,1-.17.85,3.79,3.79,0,0,1-.61.95c-.08.1-.34.37-.78.82L764.84,447Z" transform="translate(-724.18 -409.07)"/><path class="cls-4" d="M772.34,441.2a1.23,1.23,0,0,0-1.15.75,6.85,6.85,0,0,0,0,4.5,1.26,1.26,0,0,0,2.3,0,6.85,6.85,0,0,0,0-4.5,1.23,1.23,0,0,0-1.15-.75m0-.78a2.14,2.14,0,0,1,1.87,1,6.4,6.4,0,0,1,0,5.62,2.31,2.31,0,0,1-3.75,0,6.49,6.49,0,0,1,0-5.62,2.14,2.14,0,0,1,1.88-1Z" transform="translate(-724.18 -409.07)"/><path class="cls-5" d="M876,455.15v-33m140.36,41.92v-17" transform="translate(-724.18 -409.07)"/><path class="cls-6" d="M787.6,675.58V409.47M1103,675.58V409.47M787.6,675.58H1103M787.6,409.47H1103" transform="translate(-724.18 -409.07)"/><line class="cls-7" x1="203.42" y1="144.14" x2="242.89" y2="144.14"/><path d="M837.87,693.45a3.49,3.49,0,0,1-.23,1.28,3.09,3.09,0,0,1-.7,1.09,3.6,3.6,0,0,1-1.14.78,4.07,4.07,0,0,1-1.57.29h-1.61v3.81H830V690h4.23a4.07,4.07,0,0,1,1.57.29,3.58,3.58,0,0,1,1.14.77,3.13,3.13,0,0,1,.7,1.1A3.44,3.44,0,0,1,837.87,693.45Zm-2.62,0a1.08,1.08,0,0,0-1.14-1.08h-1.49v2.16h1.49a1.08,1.08,0,0,0,1.14-1.08Z" transform="translate(-724.18 -409.07)"/><path d="M842.81,701.66a2.79,2.79,0,0,1-.63,1.06,1.9,1.9,0,0,1-.82.54,3.5,3.5,0,0,1-1,.14h-.93v-2.22H840a1.09,1.09,0,0,0,.52-.11.9.9,0,0,0,.3-.49l.23-.68-2.69-7.27h2.58l1.37,4.18,1.3-4.18h2.58Z" transform="translate(-724.18 -409.07)"/><path d="M849.65,700.7a2.68,2.68,0,0,1-1.15-.22,2.19,2.19,0,0,1-1.21-1.33,2.48,2.48,0,0,1-.15-.84v-3.48h-.73v-1.89h.73v-2.31h2.46v2.31h1.28v1.89H849.6v3.3a.44.44,0,0,0,.5.5h.78v2.07Z" transform="translate(-724.18 -409.07)"/><path d="M856.76,700.7v-4.89a1.13,1.13,0,0,0-.11-.53,1,1,0,0,0-.24-.32,1,1,0,0,0-.31-.16,1.11,1.11,0,0,0-.29,0,1,1,0,0,0-.28,0,1,1,0,0,0-.31.16,1,1,0,0,0-.25.32,1.14,1.14,0,0,0-.1.53v4.89h-2.46V690h2.46v3.27a2.48,2.48,0,0,1,1.77-.75,2.67,2.67,0,0,1,1.14.22,2.16,2.16,0,0,1,.8.63,2.42,2.42,0,0,1,.48.93,3.79,3.79,0,0,1,.16,1.14v5.24Z" transform="translate(-724.18 -409.07)"/><path d="M867.68,696.66c0,.4,0,.75,0,1.05a4.54,4.54,0,0,1-.14.81,2.41,2.41,0,0,1-.27.66,2.84,2.84,0,0,1-.43.57,3.13,3.13,0,0,1-.42.38,3.88,3.88,0,0,1-.57.33,3.28,3.28,0,0,1-.71.24,4.45,4.45,0,0,1-1.78,0,3.38,3.38,0,0,1-.72-.24,3.76,3.76,0,0,1-.56-.33,3.23,3.23,0,0,1-.43-.38,2.79,2.79,0,0,1-.42-.57,2.41,2.41,0,0,1-.27-.66,4.5,4.5,0,0,1-.15-.81c0-.3,0-.65,0-1.05s0-.73,0-1a4.62,4.62,0,0,1,.15-.82,2.41,2.41,0,0,1,.27-.66,2.79,2.79,0,0,1,.42-.57,3.38,3.38,0,0,1,2.6-1,3.56,3.56,0,0,1,1.6.32,3.61,3.61,0,0,1,1,.71,2.84,2.84,0,0,1,.43.57,2.41,2.41,0,0,1,.27.66,4.66,4.66,0,0,1,.14.82C867.66,695.93,867.68,696.27,867.68,696.66Zm-2.46,0a7.36,7.36,0,0,0-.06-1,1.13,1.13,0,0,0-.3-.66,1.1,1.1,0,0,0-1.32,0,1.13,1.13,0,0,0-.3.66,8.7,8.7,0,0,0,0,2,1.13,1.13,0,0,0,.3.66,1.06,1.06,0,0,0,1.32,0,1.13,1.13,0,0,0,.3-.66A7.36,7.36,0,0,0,865.22,696.66Z" transform="translate(-724.18 -409.07)"/><path d="M873.69,700.7v-4.83a1.28,1.28,0,0,0-.1-.56.85.85,0,0,0-.27-.34.87.87,0,0,0-.33-.17,1.17,1.17,0,0,0-.29,0,1.18,1.18,0,0,0-.3,0,.87.87,0,0,0-.33.17.85.85,0,0,0-.27.34,1.28,1.28,0,0,0-.1.56v4.83h-2.45v-8.07h2.39v.66a2.29,2.29,0,0,1,.89-.56,2.75,2.75,0,0,1,1-.19,2.82,2.82,0,0,1,1,.18,2.24,2.24,0,0,1,.79.51,2.42,2.42,0,0,1,.67,1.09,5.3,5.3,0,0,1,.14,1.22v5.16Z" transform="translate(-724.18 -409.07)"/><path d="M881.42,700.7V690H884V700.7Z" transform="translate(-724.18 -409.07)"/><path d="M894.15,695.36v1.21a6.53,6.53,0,0,1-.09,1.1,3.78,3.78,0,0,1-.32,1,3.56,3.56,0,0,1-.7,1,3.22,3.22,0,0,1-1.29.8,4.9,4.9,0,0,1-1.59.25h-4V690h4a4.9,4.9,0,0,1,1.59.25,3.22,3.22,0,0,1,1.29.8,3.56,3.56,0,0,1,.7,1,3.78,3.78,0,0,1,.32,1,6.53,6.53,0,0,1,.09,1.1Zm-2.62,0c0-.45,0-.82,0-1.1s0-.5,0-.66a1.41,1.41,0,0,0-.09-.39,1.17,1.17,0,0,0-.14-.25,1.41,1.41,0,0,0-.47-.44,1.6,1.6,0,0,0-.79-.16h-1.15v6H890a1.6,1.6,0,0,0,.79-.17,1.39,1.39,0,0,0,.47-.43,2,2,0,0,0,.14-.25,1.24,1.24,0,0,0,.09-.38c0-.17,0-.4,0-.68S891.53,695.81,891.53,695.36Z" transform="translate(-724.18 -409.07)"/><path d="M899.37,701.66a2.79,2.79,0,0,1-.63,1.06,1.9,1.9,0,0,1-.82.54,3.43,3.43,0,0,1-1,.14H896v-2.22h.52a1.09,1.09,0,0,0,.52-.11.9.9,0,0,0,.31-.49l.22-.68-2.68-7.27h2.58l1.36,4.18,1.31-4.18h2.58Z" transform="translate(-724.18 -409.07)"/><path d="M911.46,695.36c0,.4,0,.79,0,1.18a6.74,6.74,0,0,1-.1,1.11,4.41,4.41,0,0,1-.32,1,3.12,3.12,0,0,1-.65.91,3.92,3.92,0,0,1-3,1.2,4.16,4.16,0,0,1-1.7-.31,4.09,4.09,0,0,1-1.29-.89,3.08,3.08,0,0,1-.64-.91,4.43,4.43,0,0,1-.33-1,6.74,6.74,0,0,1-.1-1.11c0-.39,0-.78,0-1.18s0-.79,0-1.18a6.86,6.86,0,0,1,.1-1.12,4.35,4.35,0,0,1,.33-1,3.08,3.08,0,0,1,.64-.91,4.09,4.09,0,0,1,1.29-.89,4.16,4.16,0,0,1,1.7-.31,3.92,3.92,0,0,1,3,1.2,3.12,3.12,0,0,1,.65.91,4.33,4.33,0,0,1,.32,1,6.86,6.86,0,0,1,.1,1.12C911.46,694.57,911.46,695,911.46,695.36Zm-2.62,0c0-.49,0-.89,0-1.19s0-.55-.08-.74a1.61,1.61,0,0,0-.12-.43,1.75,1.75,0,0,0-.16-.27,1.19,1.19,0,0,0-.42-.33,1.59,1.59,0,0,0-1.26,0,1.19,1.19,0,0,0-.42.33,1.78,1.78,0,0,0-.17.27,1.61,1.61,0,0,0-.12.43c0,.19,0,.43-.07.74s0,.7,0,1.19,0,.88,0,1.18,0,.55.07.73a1.51,1.51,0,0,0,.12.43,1.78,1.78,0,0,0,.17.27,1.33,1.33,0,0,0,.42.34,1.49,1.49,0,0,0,1.26,0,1.33,1.33,0,0,0,.42-.34,1.75,1.75,0,0,0,.16-.27,1.51,1.51,0,0,0,.12-.43c0-.18.06-.43.08-.73S908.84,695.85,908.84,695.36Z" transform="translate(-724.18 -409.07)"/><path d="M920.61,700.7v-5.12l-1.51,2.64h-1.68l-1.52-2.64v5.12h-2.62V690h2.58l2.4,4.71,2.4-4.71h2.58V700.7Z" transform="translate(-724.18 -409.07)"/><path d="M978.16,700.7V690h2.62v8.34h4.49v2.34Z" transform="translate(-724.18 -409.07)"/><path d="M989.38,690.77a1.44,1.44,0,0,1-.44,1.06,1.51,1.51,0,0,1-2.13,0,1.43,1.43,0,0,1-.43-1.06,1.5,1.5,0,1,1,3,0Zm-2.73,9.93v-7.76h2.46v7.76Z" transform="translate(-724.18 -409.07)"/><path d="M997.19,698.06a2.49,2.49,0,0,1-.28,1.23,2.69,2.69,0,0,1-.76.85,3.29,3.29,0,0,1-1.11.49,5.21,5.21,0,0,1-1.33.16l-.9,0a5.32,5.32,0,0,1-.89-.14,3.6,3.6,0,0,1-.87-.35,3.5,3.5,0,0,1-.85-.65l1.59-1.59a2.06,2.06,0,0,0,.53.39,2.63,2.63,0,0,0,.55.2,2.46,2.46,0,0,0,.5.08h.39a1.78,1.78,0,0,0,.31,0,1.37,1.37,0,0,0,.35-.08.73.73,0,0,0,.27-.17.32.32,0,0,0,.12-.25.51.51,0,0,0-.12-.32.59.59,0,0,0-.47-.19l-1.24-.12a3.78,3.78,0,0,1-1-.2,2,2,0,0,1-1.23-1.14,2.72,2.72,0,0,1-.17-1,2.3,2.3,0,0,1,.28-1.17,2.65,2.65,0,0,1,.73-.83,3.06,3.06,0,0,1,1-.51,4.25,4.25,0,0,1,1.18-.16,7.48,7.48,0,0,1,1.78.19,3,3,0,0,1,1.4.8L995.51,695a1.42,1.42,0,0,0-.76-.39,5,5,0,0,0-1-.09.88.88,0,0,0-.62.17.43.43,0,0,0-.17.3v.1a.38.38,0,0,0,.06.13.39.39,0,0,0,.15.13.89.89,0,0,0,.31.09l1.25.12a3.35,3.35,0,0,1,1.08.27,2.27,2.27,0,0,1,.76.54,2.33,2.33,0,0,1,.43.75A2.93,2.93,0,0,1,997.19,698.06Z" transform="translate(-724.18 -409.07)"/><path d="M1005.49,696.66c0,.3,0,.61,0,.93a7,7,0,0,1-.08.92,3.43,3.43,0,0,1-.22.85,2.08,2.08,0,0,1-.44.69,2.52,2.52,0,0,1-.86.54,3.06,3.06,0,0,1-1.09.2,2.81,2.81,0,0,1-1-.17,2.08,2.08,0,0,1-.77-.51v3.2h-2.46V692.63h2.38v.66a2.39,2.39,0,0,1,1.86-.75,3.07,3.07,0,0,1,1.1.19,2.47,2.47,0,0,1,.87.54,2.13,2.13,0,0,1,.44.7,3.43,3.43,0,0,1,.22.85,7,7,0,0,1,.08.92C1005.48,696.06,1005.49,696.36,1005.49,696.66Zm-2.46,0c0-.29,0-.55,0-.78a2.21,2.21,0,0,0-.14-.6.81.81,0,0,0-.31-.39,1,1,0,0,0-.55-.13.94.94,0,0,0-.54.13.81.81,0,0,0-.31.39,2.21,2.21,0,0,0-.14.6c0,.23,0,.49,0,.78s0,.56,0,.79a2.21,2.21,0,0,0,.14.6.78.78,0,0,0,.31.38.94.94,0,0,0,.54.14,1,1,0,0,0,.55-.14.78.78,0,0,0,.31-.38,2.21,2.21,0,0,0,.14-.6C1003,697.22,1003,697,1003,696.66Z" transform="translate(-724.18 -409.07)"/><path d="M1010.54,700.7V690h2.63V700.7Z" transform="translate(-724.18 -409.07)"/><path d="M1023.27,695.36v1.21a6.53,6.53,0,0,1-.09,1.1,3.78,3.78,0,0,1-.32,1,3.35,3.35,0,0,1-.7,1,3.22,3.22,0,0,1-1.29.8,4.9,4.9,0,0,1-1.59.25h-4V690h4a4.9,4.9,0,0,1,1.59.25,3.22,3.22,0,0,1,1.29.8,3.35,3.35,0,0,1,.7,1,3.78,3.78,0,0,1,.32,1,6.53,6.53,0,0,1,.09,1.1Zm-2.62,0c0-.45,0-.82,0-1.1s0-.5,0-.66a1.41,1.41,0,0,0-.09-.39,1.17,1.17,0,0,0-.14-.25,1.33,1.33,0,0,0-.47-.44,1.6,1.6,0,0,0-.79-.16H1018v6h1.15a1.6,1.6,0,0,0,.79-.17,1.3,1.3,0,0,0,.47-.43,2,2,0,0,0,.14-.25,1.24,1.24,0,0,0,.09-.38c0-.17,0-.4,0-.68S1020.65,695.81,1020.65,695.36Z" transform="translate(-724.18 -409.07)"/><path d="M1028.49,701.66a2.79,2.79,0,0,1-.63,1.06,1.93,1.93,0,0,1-.81.54,3.55,3.55,0,0,1-1,.14h-.93v-2.22h.52a1.06,1.06,0,0,0,.52-.11.85.85,0,0,0,.31-.49l.22-.68-2.68-7.27h2.58l1.36,4.18,1.31-4.18h2.58Z" transform="translate(-724.18 -409.07)"/><path d="M1040.58,695.36v1.18a6.73,6.73,0,0,1-.11,1.11,4,4,0,0,1-.32,1,3.12,3.12,0,0,1-.65.91,3.92,3.92,0,0,1-3,1.2,4.16,4.16,0,0,1-1.7-.31,4.09,4.09,0,0,1-1.29-.89,3.08,3.08,0,0,1-.64-.91,4,4,0,0,1-.32-1,6.73,6.73,0,0,1-.11-1.11c0-.39,0-.78,0-1.18s0-.79,0-1.18a6.86,6.86,0,0,1,.11-1.12,3.91,3.91,0,0,1,.32-1,3.08,3.08,0,0,1,.64-.91,4.09,4.09,0,0,1,1.29-.89,4.16,4.16,0,0,1,1.7-.31,3.92,3.92,0,0,1,3,1.2,3.12,3.12,0,0,1,.65.91,3.91,3.91,0,0,1,.32,1,6.86,6.86,0,0,1,.11,1.12Zm-2.62,0c0-.49,0-.89,0-1.19s0-.55-.08-.74a1.61,1.61,0,0,0-.12-.43,1.75,1.75,0,0,0-.16-.27,1.19,1.19,0,0,0-.42-.33,1.59,1.59,0,0,0-1.26,0,1.19,1.19,0,0,0-.42.33,1.78,1.78,0,0,0-.17.27,1.61,1.61,0,0,0-.12.43c0,.19,0,.43-.07.74s0,.7,0,1.19,0,.88,0,1.18,0,.55.07.73a1.51,1.51,0,0,0,.12.43,1.78,1.78,0,0,0,.17.27,1.33,1.33,0,0,0,.42.34,1.49,1.49,0,0,0,1.26,0,1.33,1.33,0,0,0,.42-.34,1.75,1.75,0,0,0,.16-.27,1.51,1.51,0,0,0,.12-.43c0-.18.06-.43.08-.73S1038,695.85,1038,695.36Z" transform="translate(-724.18 -409.07)"/><path d="M1049.73,700.7v-5.12l-1.51,2.64h-1.68l-1.52-2.64v5.12h-2.62V690H1045l2.4,4.71,2.4-4.71h2.58V700.7Z" transform="translate(-724.18 -409.07)"/><path d="M735,583.89H724.27v-2.62h8.34v-4.48H735Z" transform="translate(-724.18 -409.07)"/><path d="M735,575.26H724.27v-2.63H735Z" transform="translate(-724.18 -409.07)"/><path d="M735,564.52,730.57,567l1,.91H735v2.59H724.27v-2.59h3.78l-3.78-3.09v-3.21l4.32,3.64,6.36-3.76Z" transform="translate(-724.18 -409.07)"/><path d="M735,560.38H724.27v-7.26h2.34v4.63h1.79v-4h2.34v4h1.87v-4.63H735Z" transform="translate(-724.18 -409.07)"/><path d="M735,551.26H724.27v-2.63h8.34v-4.48H735Z" transform="translate(-724.18 -409.07)"/><path d="M735,542.62H724.27V540H735Z" transform="translate(-724.18 -409.07)"/><path d="M735,532.42h-4.23v2.79H735v2.62H724.27v-2.62h4.11v-2.79h-4.11v-2.63H735Z" transform="translate(-724.18 -409.07)"/><path d="M729.61,519.85h1.18a6.75,6.75,0,0,1,1.12.11,4.11,4.11,0,0,1,1,.32,3.21,3.21,0,0,1,.9.65,3.82,3.82,0,0,1,1.2,3,4.34,4.34,0,0,1-.3,1.7,4.3,4.3,0,0,1-.9,1.29,3.17,3.17,0,0,1-.9.64,4.11,4.11,0,0,1-1,.32,6.75,6.75,0,0,1-1.12.11h-2.35a6.75,6.75,0,0,1-1.12-.11,4.11,4.11,0,0,1-1-.32,3.21,3.21,0,0,1-.91-.64,4.26,4.26,0,0,1-.89-1.29,4.34,4.34,0,0,1-.31-1.7,3.92,3.92,0,0,1,1.2-3,3.25,3.25,0,0,1,.91-.65,4.11,4.11,0,0,1,1-.32,6.75,6.75,0,0,1,1.12-.11Zm0,2.62c-.49,0-.88,0-1.19,0s-.55,0-.73.08a1.51,1.51,0,0,0-.43.12,1.75,1.75,0,0,0-.27.16,1.19,1.19,0,0,0-.33.42,1.49,1.49,0,0,0,0,1.26,1.19,1.19,0,0,0,.33.42,1.78,1.78,0,0,0,.27.17,1.51,1.51,0,0,0,.43.12c.18,0,.43,0,.73.07s.7,0,1.19,0,.89,0,1.19,0,.54,0,.73-.07a1.53,1.53,0,0,0,.42-.12,1.78,1.78,0,0,0,.27-.17,1.21,1.21,0,0,0,.34-.42,1.49,1.49,0,0,0,0-1.26,1.21,1.21,0,0,0-.34-.42,1.75,1.75,0,0,0-.27-.16,1.53,1.53,0,0,0-.42-.12c-.19,0-.43-.06-.73-.08S730.1,522.47,729.61,522.47Z" transform="translate(-724.18 -409.07)"/><path d="M729.61,510.25h1.18a6.75,6.75,0,0,1,1.12.11,4.11,4.11,0,0,1,1,.32,3.21,3.21,0,0,1,.9.65,3.82,3.82,0,0,1,1.2,3,4.34,4.34,0,0,1-.3,1.7,4.3,4.3,0,0,1-.9,1.29,3.17,3.17,0,0,1-.9.64,4.11,4.11,0,0,1-1,.32,6.75,6.75,0,0,1-1.12.11h-2.35a6.75,6.75,0,0,1-1.12-.11,4.11,4.11,0,0,1-1-.32,3.21,3.21,0,0,1-.91-.64,4.26,4.26,0,0,1-.89-1.29,4.34,4.34,0,0,1-.31-1.7,3.92,3.92,0,0,1,1.2-3,3.25,3.25,0,0,1,.91-.65,4.11,4.11,0,0,1,1-.32,6.75,6.75,0,0,1,1.12-.11Zm0,2.62c-.49,0-.88,0-1.19,0s-.55.05-.73.08a1.51,1.51,0,0,0-.43.12,1.75,1.75,0,0,0-.27.16,1.19,1.19,0,0,0-.33.42,1.49,1.49,0,0,0,0,1.26,1.19,1.19,0,0,0,.33.42,1.78,1.78,0,0,0,.27.17,1.51,1.51,0,0,0,.43.12c.18,0,.43.05.73.07s.7,0,1.19,0,.89,0,1.19,0,.54,0,.73-.07a1.53,1.53,0,0,0,.42-.12,1.78,1.78,0,0,0,.27-.17,1.21,1.21,0,0,0,.34-.42,1.49,1.49,0,0,0,0-1.26,1.21,1.21,0,0,0-.34-.42,1.75,1.75,0,0,0-.27-.16,1.53,1.53,0,0,0-.42-.12c-.19,0-.43-.06-.73-.08S730.1,512.87,729.61,512.87Z" transform="translate(-724.18 -409.07)"/><path d="M729.61,500.48h1.21a6.45,6.45,0,0,1,1.1.09,4.16,4.16,0,0,1,1,.32,3.56,3.56,0,0,1,1,.7,3.32,3.32,0,0,1,.81,1.3,5.08,5.08,0,0,1,.24,1.58v4H724.27v-4a5.08,5.08,0,0,1,.25-1.58,3.3,3.3,0,0,1,.8-1.3,3.56,3.56,0,0,1,1-.7,4.16,4.16,0,0,1,1-.32,6.57,6.57,0,0,1,1.11-.09Zm0,2.63h-1.09c-.28,0-.5,0-.67.05a1.61,1.61,0,0,0-.39.09,1.46,1.46,0,0,0-.25.13,1.39,1.39,0,0,0-.43.47,1.62,1.62,0,0,0-.17.79v1.16h6v-1.16a1.63,1.63,0,0,0-.16-.79,1.41,1.41,0,0,0-.44-.47l-.24-.13a1.41,1.41,0,0,0-.39-.09c-.17,0-.39,0-.67-.05Z" transform="translate(-724.18 -409.07)"/></svg>